<svg width="32" height="28" viewBox="0 0 32 28" fill="none" xmlns="http://www.w3.org/2000/svg">
<path d="M28 1.75C28.5304 1.75 29.0391 1.93437 29.4142 2.26256C29.7893 2.59075 30 3.03587 30 3.5V17.5C30 17.9641 29.7893 18.4092 29.4142 18.7374C29.0391 19.0656 28.5304 19.25 28 19.25H8.828C7.76722 19.2502 6.74997 19.6191 6 20.2755L2 23.7755V3.5C2 3.03587 2.21071 2.59075 2.58579 2.26256C2.96086 1.93437 3.46957 1.75 4 1.75H28ZM4 0C2.93913 0 1.92172 0.368749 1.17157 1.02513C0.421427 1.6815 0 2.57174 0 3.5L0 25.8878C4.20298e-05 26.0609 0.0587852 26.2301 0.168795 26.374C0.278804 26.5179 0.435134 26.6301 0.617999 26.6962C0.800863 26.7623 1.00204 26.7795 1.19607 26.7456C1.3901 26.7116 1.56826 26.6281 1.708 26.5055L7.414 21.5128C7.78899 21.1845 8.29761 21.0001 8.828 21H28C29.0609 21 30.0783 20.6313 30.8284 19.9749C31.5786 19.3185 32 18.4283 32 17.5V3.5C32 2.57174 31.5786 1.6815 30.8284 1.02513C30.0783 0.368749 29.0609 0 28 0L4 0Z" fill="#A80743"/>
<path d="M10 10.5C10 10.9641 9.78929 11.4092 9.41421 11.7374C9.03914 12.0656 8.53043 12.25 8 12.25C7.46957 12.25 6.96086 12.0656 6.58579 11.7374C6.21071 11.4092 6 10.9641 6 10.5C6 10.0359 6.21071 9.59075 6.58579 9.26256C6.96086 8.93437 7.46957 8.75 8 8.75C8.53043 8.75 9.03914 8.93437 9.41421 9.26256C9.78929 9.59075 10 10.0359 10 10.5ZM18 10.5C18 10.9641 17.7893 11.4092 17.4142 11.7374C17.0391 12.0656 16.5304 12.25 16 12.25C15.4696 12.25 14.9609 12.0656 14.5858 11.7374C14.2107 11.4092 14 10.9641 14 10.5C14 10.0359 14.2107 9.59075 14.5858 9.26256C14.9609 8.93437 15.4696 8.75 16 8.75C16.5304 8.75 17.0391 8.93437 17.4142 9.26256C17.7893 9.59075 18 10.0359 18 10.5ZM26 10.5C26 10.9641 25.7893 11.4092 25.4142 11.7374C25.0391 12.0656 24.5304 12.25 24 12.25C23.4696 12.25 22.9609 12.0656 22.5858 11.7374C22.2107 11.4092 22 10.9641 22 10.5C22 10.0359 22.2107 9.59075 22.5858 9.26256C22.9609 8.93437 23.4696 8.75 24 8.75C24.5304 8.75 25.0391 8.93437 25.4142 9.26256C25.7893 9.59075 26 10.0359 26 10.5Z" fill="#A80743"/>
</svg>
