<svg width="30" height="28" viewBox="0 0 30 28" fill="none" xmlns="http://www.w3.org/2000/svg">
<path d="M5.625 25.375C4.87908 25.375 4.16371 25.0984 3.63626 24.6062C3.10882 24.1139 2.8125 23.4462 2.8125 22.75V5.25C2.8125 4.55381 3.10882 3.88613 3.63626 3.39384C4.16371 2.90156 4.87908 2.625 5.625 2.625H20.625C20.8736 2.625 21.1121 2.71719 21.2879 2.88128C21.4637 3.04538 21.5625 3.26794 21.5625 3.5C21.5625 3.73206 21.4637 3.95462 21.2879 4.11872C21.1121 4.28281 20.8736 4.375 20.625 4.375H5.625C5.37636 4.375 5.1379 4.46719 4.96209 4.63128C4.78627 4.79538 4.6875 5.01794 4.6875 5.25V22.75C4.6875 22.9821 4.78627 23.2046 4.96209 23.3687C5.1379 23.5328 5.37636 23.625 5.625 23.625H24.375C24.6236 23.625 24.8621 23.5328 25.0379 23.3687C25.2137 23.2046 25.3125 22.9821 25.3125 22.75V14C25.3125 13.7679 25.4113 13.5454 25.5871 13.3813C25.7629 13.2172 26.0014 13.125 26.25 13.125C26.4986 13.125 26.7371 13.2172 26.9129 13.3813C27.0887 13.5454 27.1875 13.7679 27.1875 14V22.75C27.1875 23.4462 26.8912 24.1139 26.3637 24.6062C25.8363 25.0984 25.1209 25.375 24.375 25.375H5.625Z" fill="white"/>
<path d="M15.6637 18.1195L28.7887 5.86951C28.8759 5.78815 28.945 5.69157 28.9922 5.58528C29.0394 5.47898 29.0636 5.36506 29.0636 5.25001C29.0636 5.13495 29.0394 5.02103 28.9922 4.91474C28.945 4.80844 28.8759 4.71186 28.7887 4.63051C28.7015 4.54915 28.5981 4.48462 28.4842 4.44059C28.3703 4.39656 28.2482 4.3739 28.125 4.3739C28.0017 4.3739 27.8796 4.39656 27.7657 4.44059C27.6519 4.48462 27.5484 4.54915 27.4612 4.63051L15 16.2628L10.0387 11.6305C9.95155 11.5492 9.84807 11.4846 9.73418 11.4406C9.6203 11.3966 9.49823 11.3739 9.37496 11.3739C9.25169 11.3739 9.12963 11.3966 9.01574 11.4406C8.90186 11.4846 8.79838 11.5492 8.71121 11.6305C8.62405 11.7119 8.55491 11.8084 8.50773 11.9147C8.46056 12.021 8.43628 12.135 8.43628 12.25C8.43628 12.3651 8.46056 12.479 8.50773 12.5853C8.55491 12.6916 8.62405 12.7882 8.71121 12.8695L14.3362 18.1195C14.4233 18.201 14.5268 18.2656 14.6407 18.3098C14.7545 18.3539 14.8767 18.3766 15 18.3766C15.1233 18.3766 15.2454 18.3539 15.3593 18.3098C15.4732 18.2656 15.5766 18.201 15.6637 18.1195Z" fill="white"/>
</svg>
