<svg width="35" height="33" viewBox="0 0 35 33" fill="none" xmlns="http://www.w3.org/2000/svg">
<path d="M35 16.5C35 16.5 28.4375 5.15625 17.5 5.15625C6.5625 5.15625 0 16.5 0 16.5C0 16.5 6.5625 27.8438 17.5 27.8438C28.4375 27.8438 35 16.5 35 16.5ZM2.56594 16.5C3.62363 14.9843 4.84015 13.5727 6.19719 12.2863C9.0125 9.62775 12.8625 7.21875 17.5 7.21875C22.1375 7.21875 25.9853 9.62775 28.805 12.2863C30.162 13.5727 31.3786 14.9843 32.4362 16.5C32.3094 16.6794 32.1694 16.8774 32.0097 17.094C31.2769 18.084 30.1941 19.404 28.805 20.7137C25.9853 23.3722 22.1353 25.7812 17.5 25.7812C12.8625 25.7812 9.01469 23.3722 6.195 20.7137C4.83798 19.4273 3.62364 18.0157 2.56594 16.5Z" fill="#A80743"/>
<path d="M17.5 11.3438C16.0496 11.3438 14.6586 11.887 13.633 12.854C12.6074 13.821 12.0312 15.1325 12.0312 16.5C12.0312 17.8675 12.6074 19.179 13.633 20.146C14.6586 21.113 16.0496 21.6562 17.5 21.6562C18.9504 21.6562 20.3414 21.113 21.367 20.146C22.3926 19.179 22.9688 17.8675 22.9688 16.5C22.9688 15.1325 22.3926 13.821 21.367 12.854C20.3414 11.887 18.9504 11.3438 17.5 11.3438ZM9.84375 16.5C9.84375 14.5855 10.6504 12.7494 12.0862 11.3956C13.522 10.0418 15.4694 9.28125 17.5 9.28125C19.5306 9.28125 21.478 10.0418 22.9138 11.3956C24.3496 12.7494 25.1562 14.5855 25.1562 16.5C25.1562 18.4145 24.3496 20.2506 22.9138 21.6044C21.478 22.9582 19.5306 23.7188 17.5 23.7188C15.4694 23.7188 13.522 22.9582 12.0862 21.6044C10.6504 20.2506 9.84375 18.4145 9.84375 16.5Z" fill="#A80743"/>
</svg>
