<svg width="36" height="36" viewBox="0 0 36 36" fill="none" xmlns="http://www.w3.org/2000/svg">
<g id="facebook" clip-path="url(#clip0_248_720)">
<g id="Group">
<path id="Vector" d="M17.9998 36C27.9409 36 35.9998 27.9411 35.9998 18C35.9998 8.05888 27.9409 0 17.9998 0C8.05863 0 -0.000244141 8.05888 -0.000244141 18C-0.000244141 27.9411 8.05863 36 17.9998 36Z" fill="#3B5998"/>
<path id="Vector_2" d="M22.5251 18.705H19.3133V30.4718H14.447V18.705H12.1326V14.5697H14.447V11.8936C14.447 9.97998 15.356 6.9834 19.3566 6.9834L22.9612 6.99848V11.0125H20.3458C19.9168 11.0125 19.3136 11.2269 19.3136 12.1397V14.5735H22.9503L22.5251 18.705Z" fill="white"/>
</g>
</g>
<defs>
<clipPath id="clip0_248_720">
<rect width="36" height="36" fill="white" transform="translate(-0.000244141)"/>
</clipPath>
</defs>
</svg>
