<svg width="38" height="38" viewBox="0 0 38 38" fill="none" xmlns="http://www.w3.org/2000/svg">
<mask id="mask0_94_1983" style="mask-type:luminance" maskUnits="userSpaceOnUse" x="2" y="2" width="34" height="34">
<path fill-rule="evenodd" clip-rule="evenodd" d="M2.35114 2.16187H35.6165V35.6257H2.35114V2.16187Z" fill="white"/>
</mask>
<g mask="url(#mask0_94_1983)">
<path fill-rule="evenodd" clip-rule="evenodd" d="M10.2576 31.2371C11.1552 31.2371 12.0018 31.5796 12.898 31.9423C18.3878 34.4957 24.8805 33.3342 29.1105 29.0807C34.6916 23.4634 34.6916 14.326 29.1105 8.71176C26.4081 5.99341 22.8143 4.49722 18.9883 4.49722C15.1608 4.49722 11.5654 5.99496 8.8646 8.71332C4.6331 12.9668 3.48159 19.498 5.99665 24.9674C6.35882 25.8688 6.70861 26.7469 6.70861 27.6593C6.70861 28.5701 6.39752 29.4871 6.12357 30.2967C5.8976 30.963 5.55555 31.9688 5.77533 32.1899C5.99046 32.4141 6.99649 32.0607 7.66046 31.8318C8.45755 31.5578 9.36142 31.2433 10.2576 31.2371ZM18.9496 35.626C16.5847 35.626 14.2043 35.1231 11.9771 34.0862C11.3208 33.8215 10.7064 33.5724 10.2653 33.5724C9.75764 33.5755 9.07509 33.8122 8.41576 34.041C7.06304 34.5081 5.37911 35.0904 4.13319 33.8418C2.89191 32.5916 3.46457 30.9023 3.92579 29.5431C4.15331 28.8737 4.38702 28.1824 4.38702 27.6593C4.38702 27.2296 4.18117 26.6816 3.86543 25.8922C0.966532 19.5945 2.30687 12.0046 7.224 7.06144C10.3628 3.90248 14.5401 2.16187 18.9868 2.16187C23.4334 2.16187 27.6123 3.90093 30.751 7.05989C37.2391 13.5864 37.2391 24.2045 30.751 30.7311C27.5705 33.9321 23.2879 35.626 18.9496 35.626Z" fill="black"/>
</g>
<path fill-rule="evenodd" clip-rule="evenodd" d="M25.097 21.0979C24.2427 21.0979 23.5431 20.402 23.5431 19.541C23.5431 18.6801 24.2287 17.9841 25.0831 17.9841H25.097C25.9514 17.9841 26.6447 18.6801 26.6447 19.541C26.6447 20.402 25.9514 21.0979 25.097 21.0979Z" fill="black"/>
<path fill-rule="evenodd" clip-rule="evenodd" d="M18.8925 21.0979C18.0381 21.0979 17.3386 20.402 17.3386 19.541C17.3386 18.6801 18.0227 17.9841 18.8786 17.9841H18.8925C19.7468 17.9841 20.4402 18.6801 20.4402 19.541C20.4402 20.402 19.7468 21.0979 18.8925 21.0979Z" fill="black"/>
<path fill-rule="evenodd" clip-rule="evenodd" d="M12.6873 21.0979C11.833 21.0979 11.1334 20.402 11.1334 19.541C11.1334 18.6801 11.8191 17.9841 12.6734 17.9841H12.6873C13.5417 17.9841 14.2351 18.6801 14.2351 19.541C14.2351 20.402 13.5417 21.0979 12.6873 21.0979Z" fill="black"/>
</svg>
