<svg width="41" height="39" viewBox="0 0 41 39" fill="none" xmlns="http://www.w3.org/2000/svg">
<mask id="mask0_94_1963" style="mask-type:luminance" maskUnits="userSpaceOnUse" x="24" y="3" width="15" height="15">
<path fill-rule="evenodd" clip-rule="evenodd" d="M24.0917 3.73877H38.2574V17.1432H24.0917V3.73877Z" fill="white"/>
</mask>
<g mask="url(#mask0_94_1963)">
<path fill-rule="evenodd" clip-rule="evenodd" d="M37.0127 17.1432C36.3873 17.1432 35.8498 16.6987 35.7784 16.097C35.1497 10.7935 30.7999 6.67769 25.1977 6.08859C24.5159 6.01633 24.0232 5.43508 24.0995 4.78786C24.1741 4.14221 24.783 3.66621 25.4731 3.7479C32.2382 4.45953 37.4921 9.42839 38.2502 15.8331C38.3266 16.4803 37.8355 17.0631 37.1537 17.1354C37.1072 17.1401 37.0591 17.1432 37.0127 17.1432Z" fill="black"/>
</g>
<path fill-rule="evenodd" clip-rule="evenodd" d="M31.1399 17.1602C30.5559 17.1602 30.0367 16.7706 29.9205 16.2082C29.4428 13.8832 27.5499 12.0908 25.098 11.6399C24.4228 11.5158 23.9832 10.8984 24.1142 10.2591C24.2453 9.61969 24.9089 9.20182 25.5724 9.32749C29.0247 9.96215 31.6906 12.4851 32.3625 15.7557C32.4935 16.3967 32.0539 17.0141 31.3804 17.1382C31.2991 17.1523 31.2195 17.1602 31.1399 17.1602Z" fill="black"/>
<path fill-rule="evenodd" clip-rule="evenodd" d="M5.73502 7.01815L5.85537 6.89905C9.05285 3.87093 11.1351 3.0683 13.3568 4.27809C13.9959 4.62609 14.595 5.11321 15.4097 5.89676L17.9087 8.35059C19.2889 9.77683 19.6027 11.1449 19.1533 12.747L19.0914 12.9591L19.0226 13.17L18.6886 14.0982C17.9735 16.1796 18.2721 17.354 20.816 19.7624C23.4615 22.2669 24.6965 22.4718 27.0641 21.6883L27.486 21.5494L27.9963 21.3925L28.2196 21.3338C30.0179 20.8795 31.5371 21.2421 33.1482 22.7667L35.1617 24.6084L35.7544 25.1604C36.4115 25.795 36.8458 26.2978 37.1666 26.8292C38.4362 28.9324 37.5877 30.903 34.298 34.0065L33.9851 34.3068C33.4939 34.7551 33.035 35.0762 32.3608 35.3793C31.2292 35.8881 29.8923 36.0799 28.3389 35.8753C24.5109 35.3712 19.6559 32.5111 13.5041 26.6871C13.0033 26.2131 12.5237 25.7481 12.0648 25.2922L11.1743 24.3923C2.83005 15.8075 2.09392 10.5339 5.51348 7.22654L5.73502 7.01815ZM13.3955 7.32146C12.855 6.81689 12.4624 6.5093 12.1163 6.32082C11.3507 5.9039 10.524 6.08014 8.99413 7.32703L8.51343 7.7337C8.42958 7.80699 8.34381 7.88308 8.25605 7.96202L7.70483 8.47042L7.65516 8.52918L7.28147 8.8847C6.37842 9.75815 5.95066 10.8242 6.31927 12.6575C6.92413 15.6659 9.69275 19.7469 15.2635 25.0207C21.0679 30.5158 25.4904 33.1211 28.6817 33.5414C30.542 33.7864 31.4909 33.3598 32.4586 32.421L33.1966 31.7157C33.5427 31.3728 33.8383 31.062 34.088 30.7781L34.4286 30.3717C35.299 29.2739 35.3785 28.6152 35.0063 27.9986C34.8646 27.764 34.6586 27.5067 34.3587 27.1923L33.9519 26.7854L33.7111 26.5573L31.1708 24.2345C30.322 23.4932 29.7418 23.3881 28.8611 23.6106L28.6068 23.6798L27.5546 24.0181C24.5019 24.9517 22.2997 24.499 19.0567 21.4288C15.6979 18.249 15.304 16.1257 16.4294 13.0683L16.5016 12.8718L16.7012 12.3023L16.7994 11.9392C16.9734 11.1491 16.7747 10.5982 15.8777 9.74867C15.8408 9.7137 15.7995 9.6743 15.7546 9.63116L13.3955 7.32146Z" fill="black"/>
</svg>
