<svg width="36" height="36" viewBox="0 0 36 36" fill="none" xmlns="http://www.w3.org/2000/svg">
<g id="twitter" clip-path="url(#clip0_248_724)">
<g id="Group">
<path id="Vector" d="M17.9996 35.9997C27.9406 35.9997 35.9994 27.9409 35.9994 17.9998C35.9994 8.0588 27.9406 0 17.9996 0C8.05856 0 -0.000244141 8.0588 -0.000244141 17.9998C-0.000244141 27.9409 8.05856 35.9997 17.9996 35.9997Z" fill="#55ACEE"/>
<g id="Group_2">
<path id="Vector_2" d="M29.0255 12.9356C28.2541 13.2776 27.4244 13.5089 26.5542 13.6123C27.4427 13.08 28.1245 12.2377 28.4463 11.2324C27.615 11.7256 26.6938 12.0833 25.7142 12.2762C24.9293 11.4403 23.8111 10.918 22.5729 10.918C20.1972 10.918 18.2704 12.8448 18.2704 15.2204C18.2704 15.5577 18.3086 15.8859 18.3824 16.201C14.8067 16.0216 11.6363 14.3089 9.51405 11.705C9.14378 12.3404 8.93137 13.08 8.93137 13.8683C8.93137 15.3607 9.69149 16.6781 10.8453 17.4495C10.1404 17.4273 9.47651 17.2339 8.89671 16.9107C8.89639 16.929 8.89639 16.9473 8.89639 16.9653C8.89639 19.0499 10.3801 20.7887 12.3479 21.1837C11.9873 21.2825 11.6064 21.3348 11.2146 21.3348C10.9368 21.3348 10.6676 21.3082 10.4051 21.2581C10.9525 22.9671 12.5411 24.2111 14.4242 24.246C12.9515 25.4002 11.0966 26.0878 9.08025 26.0878C8.73371 26.0878 8.39039 26.0676 8.05444 26.0275C9.95749 27.2487 12.2196 27.9607 14.6492 27.9607C22.563 27.9607 26.8908 21.4048 26.8908 15.7187C26.8908 15.5323 26.8866 15.3465 26.8783 15.1624C27.7196 14.5559 28.4489 13.7984 29.0255 12.9356Z" fill="#F1F2F2"/>
</g>
</g>
</g>
<defs>
<clipPath id="clip0_248_724">
<rect width="36" height="36" fill="white" transform="translate(-0.000244141)"/>
</clipPath>
</defs>
</svg>
